# Blender v2.82 (sub 7) OBJ File: ''
# www.blender.org
mtllib bullsLogo.mtl
o Cylinder
v 0.000000 0.059467 1.000000
v 0.000000 -0.059468 1.000000
v 0.195090 0.059467 0.980785
v 0.195090 -0.059468 0.980785
v 0.382683 0.059467 0.923880
v 0.382683 -0.059468 0.923880
v 0.555570 0.059468 0.831470
v 0.555570 -0.059468 0.831470
v 0.707107 0.059468 0.707107
v 0.707107 -0.059468 0.707107
v 0.831470 0.059468 0.555570
v 0.831470 -0.059468 0.555570
v 0.923880 0.059468 0.382683
v 0.923880 -0.059468 0.382683
v 0.980785 0.059468 0.195090
v 0.980785 -0.059468 0.195090
v 1.000000 0.059468 0.000000
v 1.000000 -0.059468 0.000000
v 0.980785 0.059468 -0.195090
v 0.980785 -0.059468 -0.195090
v 0.923880 0.059468 -0.382683
v 0.923880 -0.059468 -0.382683
v 0.831470 0.059468 -0.555570
v 0.831470 -0.059468 -0.555570
v 0.707107 0.059468 -0.707107
v 0.707107 -0.059468 -0.707107
v 0.555570 0.059468 -0.831470
v 0.555570 -0.059468 -0.831470
v 0.382683 0.059468 -0.923880
v 0.382683 -0.059467 -0.923880
v 0.195090 0.059468 -0.980785
v 0.195090 -0.059467 -0.980785
v -0.000000 0.059468 -1.000000
v -0.000000 -0.059467 -1.000000
v -0.195091 0.059468 -0.980785
v -0.195091 -0.059467 -0.980785
v -0.382684 0.059468 -0.923879
v -0.382684 -0.059467 -0.923879
v -0.555571 0.059468 -0.831469
v -0.555571 -0.059468 -0.831469
v -0.707107 0.059468 -0.707106
v -0.707107 -0.059468 -0.707106
v -0.831470 0.059468 -0.555570
v -0.831470 -0.059468 -0.555570
v -0.923880 0.059468 -0.382683
v -0.923880 -0.059468 -0.382683
v -0.980785 0.059468 -0.195089
v -0.980785 -0.059468 -0.195089
v -1.000000 0.059468 0.000001
v -1.000000 -0.059468 0.000001
v -0.980785 0.059468 0.195091
v -0.980785 -0.059468 0.195091
v -0.923879 0.059468 0.382684
v -0.923879 -0.059468 0.382684
v -0.831469 0.059468 0.555571
v -0.831469 -0.059468 0.555571
v -0.707106 0.059468 0.707108
v -0.707106 -0.059468 0.707108
v -0.555569 0.059468 0.831470
v -0.555569 -0.059468 0.831470
v -0.382682 0.059467 0.923880
v -0.382682 -0.059468 0.923880
v -0.195089 0.059467 0.980786
v -0.195089 -0.059468 0.980786
vt 1.000000 0.500000
vt 1.000000 1.000000
vt 0.968750 1.000000
vt 0.968750 0.500000
vt 0.937500 1.000000
vt 0.937500 0.500000
vt 0.906250 1.000000
vt 0.906250 0.500000
vt 0.875000 1.000000
vt 0.875000 0.500000
vt 0.843750 1.000000
vt 0.843750 0.500000
vt 0.812500 1.000000
vt 0.812500 0.500000
vt 0.781250 1.000000
vt 0.781250 0.500000
vt 0.750000 1.000000
vt 0.750000 0.500000
vt 0.718750 1.000000
vt 0.718750 0.500000
vt 0.687500 1.000000
vt 0.687500 0.500000
vt 0.656250 1.000000
vt 0.656250 0.500000
vt 0.625000 1.000000
vt 0.625000 0.500000
vt 0.593750 1.000000
vt 0.593750 0.500000
vt 0.562500 1.000000
vt 0.562500 0.500000
vt 0.531250 1.000000
vt 0.531250 0.500000
vt 0.500000 1.000000
vt 0.500000 0.500000
vt 0.468750 1.000000
vt 0.468750 0.500000
vt 0.437500 1.000000
vt 0.437500 0.500000
vt 0.406250 1.000000
vt 0.406250 0.500000
vt 0.375000 1.000000
vt 0.375000 0.500000
vt 0.343750 1.000000
vt 0.343750 0.500000
vt 0.312500 1.000000
vt 0.312500 0.500000
vt 0.281250 1.000000
vt 0.281250 0.500000
vt 0.250000 1.000000
vt 0.250000 0.500000
vt 0.218750 1.000000
vt 0.218750 0.500000
vt 0.187500 1.000000
vt 0.187500 0.500000
vt 0.156250 1.000000
vt 0.156250 0.500000
vt 0.125000 1.000000
vt 0.125000 0.500000
vt 0.093750 1.000000
vt 0.093750 0.500000
vt 0.062500 1.000000
vt 0.062500 0.500000
vt 0.521317 0.928120
vt 0.470486 0.936359
vt 0.419656 0.928120
vt 0.370779 0.903720
vt 0.325734 0.864097
vt 0.286251 0.810774
vt 0.253848 0.745799
vt 0.229771 0.671669
vt 0.214944 0.591234
vt 0.209938 0.507584
vt 0.214944 0.423934
vt 0.229771 0.343499
vt 0.253848 0.269370
vt 0.286251 0.204394
vt 0.325733 0.151071
vt 0.370779 0.111448
vt 0.419656 0.087048
vt 0.470486 0.078809
vt 0.521317 0.087048
vt 0.570194 0.111447
vt 0.615239 0.151071
vt 0.654722 0.204394
vt 0.687124 0.269369
vt 0.711201 0.343499
vt 0.726028 0.423934
vt 0.731035 0.507584
vt 0.726028 0.591234
vt 0.711201 0.671669
vt 0.687124 0.745798
vt 0.654722 0.810773
vt 0.615239 0.864097
vt 0.570194 0.903720
vt 0.031250 1.000000
vt 0.031250 0.500000
vt 0.000000 1.000000
vt 0.000000 0.500000
vt 0.480517 0.939572
vt 0.535357 0.931486
vt 0.588090 0.907541
vt 0.636689 0.868656
vt 0.679286 0.816326
vt 0.714245 0.752561
vt 0.740222 0.679812
vt 0.756218 0.600875
vt 0.761619 0.518783
vt 0.756218 0.436691
vt 0.740222 0.357754
vt 0.714245 0.285006
vt 0.679286 0.221241
vt 0.636689 0.168910
vt 0.588090 0.130025
vt 0.535357 0.106080
vt 0.480517 0.097994
vt 0.425676 0.106080
vt 0.372944 0.130025
vt 0.324345 0.168910
vt 0.281747 0.221241
vt 0.246789 0.285006
vt 0.220812 0.357755
vt 0.204816 0.436692
vt 0.199414 0.518784
vt 0.204816 0.600875
vt 0.220812 0.679812
vt 0.246789 0.752561
vt 0.281748 0.816326
vt 0.324345 0.868657
vt 0.372944 0.907542
vt 0.425677 0.931487
vn 0.0980 0.0000 0.9952
vn 0.2903 0.0000 0.9569
vn 0.4714 0.0000 0.8819
vn 0.6344 0.0000 0.7730
vn 0.7730 0.0000 0.6344
vn 0.8819 0.0000 0.4714
vn 0.9569 0.0000 0.2903
vn 0.9952 -0.0000 0.0980
vn 0.9952 0.0000 -0.0980
vn 0.9569 0.0000 -0.2903
vn 0.8819 0.0000 -0.4714
vn 0.7730 0.0000 -0.6344
vn 0.6344 0.0000 -0.7730
vn 0.4714 0.0000 -0.8819
vn 0.2903 0.0000 -0.9569
vn 0.0980 0.0000 -0.9952
vn -0.0980 0.0000 -0.9952
vn -0.2903 0.0000 -0.9569
vn -0.4714 0.0000 -0.8819
vn -0.6344 0.0000 -0.7730
vn -0.7730 0.0000 -0.6344
vn -0.8819 0.0000 -0.4714
vn -0.9569 0.0000 -0.2903
vn -0.9952 -0.0000 -0.0980
vn -0.9952 0.0000 0.0980
vn -0.9569 0.0000 0.2903
vn -0.8819 0.0000 0.4714
vn -0.7730 0.0000 0.6344
vn -0.6344 0.0000 0.7730
vn -0.4714 0.0000 0.8819
vn -0.0000 -1.0000 -0.0000
vn -0.2903 0.0000 0.9569
vn -0.0980 0.0000 0.9952
vn 0.0000 1.0000 0.0000
usemtl Material.001
s off
f 1/1/1 2/2/1 4/3/1 3/4/1
f 3/4/2 4/3/2 6/5/2 5/6/2
f 5/6/3 6/5/3 8/7/3 7/8/3
f 7/8/4 8/7/4 10/9/4 9/10/4
f 9/10/5 10/9/5 12/11/5 11/12/5
f 11/12/6 12/11/6 14/13/6 13/14/6
f 13/14/7 14/13/7 16/15/7 15/16/7
f 15/16/8 16/15/8 18/17/8 17/18/8
f 17/18/9 18/17/9 20/19/9 19/20/9
f 19/20/10 20/19/10 22/21/10 21/22/10
f 21/22/11 22/21/11 24/23/11 23/24/11
f 23/24/12 24/23/12 26/25/12 25/26/12
f 25/26/13 26/25/13 28/27/13 27/28/13
f 27/28/14 28/27/14 30/29/14 29/30/14
f 29/30/15 30/29/15 32/31/15 31/32/15
f 31/32/16 32/31/16 34/33/16 33/34/16
f 33/34/17 34/33/17 36/35/17 35/36/17
f 35/36/18 36/35/18 38/37/18 37/38/18
f 37/38/19 38/37/19 40/39/19 39/40/19
f 39/40/20 40/39/20 42/41/20 41/42/20
f 41/42/21 42/41/21 44/43/21 43/44/21
f 43/44/22 44/43/22 46/45/22 45/46/22
f 45/46/23 46/45/23 48/47/23 47/48/23
f 47/48/24 48/47/24 50/49/24 49/50/24
f 49/50/25 50/49/25 52/51/25 51/52/25
f 51/52/26 52/51/26 54/53/26 53/54/26
f 53/54/27 54/53/27 56/55/27 55/56/27
f 55/56/28 56/55/28 58/57/28 57/58/28
f 57/58/29 58/57/29 60/59/29 59/60/29
f 59/60/30 60/59/30 62/61/30 61/62/30
f 4/63/31 2/64/31 64/65/31 62/66/31 60/67/31 58/68/31 56/69/31 54/70/31 52/71/31 50/72/31 48/73/31 46/74/31 44/75/31 42/76/31 40/77/31 38/78/31 36/79/31 34/80/31 32/81/31 30/82/31 28/83/31 26/84/31 24/85/31 22/86/31 20/87/31 18/88/31 16/89/31 14/90/31 12/91/31 10/92/31 8/93/31 6/94/31
f 61/62/32 62/61/32 64/95/32 63/96/32
f 63/96/33 64/95/33 2/97/33 1/98/33
f 1/99/34 3/100/34 5/101/34 7/102/34 9/103/34 11/104/34 13/105/34 15/106/34 17/107/34 19/108/34 21/109/34 23/110/34 25/111/34 27/112/34 29/113/34 31/114/34 33/115/34 35/116/34 37/117/34 39/118/34 41/119/34 43/120/34 45/121/34 47/122/34 49/123/34 51/124/34 53/125/34 55/126/34 57/127/34 59/128/34 61/129/34 63/130/34
