# Blender v2.82 (sub 7) OBJ File: ''
# www.blender.org
mtllib crvenakocka.mtl
o Cube
v 5.039233 1.607997 -3.133210
v 5.036812 -1.547860 -3.163485
v 5.062824 1.540437 3.907263
v 5.060403 -1.615420 3.876988
v -5.060403 1.615420 -3.099297
v -5.062824 -1.540437 -3.129573
v -5.036812 1.547860 3.941176
v -5.039233 -1.607997 3.910900
vt 0.625000 0.500000
vt 0.875000 0.500000
vt 0.875000 0.750000
vt 0.625000 0.750000
vt 0.375000 0.750000
vt 0.625000 1.000000
vt 0.375000 1.000000
vt 0.375000 0.000000
vt 0.625000 0.000000
vt 0.625000 0.250000
vt 0.375000 0.250000
vt 0.125000 0.500000
vt 0.375000 0.500000
vt 0.125000 0.750000
vn 0.0008 1.0000 0.0096
vn 0.0034 -0.0096 0.9999
vn -1.0000 0.0007 0.0034
vn -0.0008 -1.0000 -0.0096
vn 1.0000 -0.0007 -0.0034
vn -0.0034 0.0096 -0.9999
usemtl Material
s off
f 1/1/1 5/2/1 7/3/1 3/4/1
f 4/5/2 3/4/2 7/6/2 8/7/2
f 8/8/3 7/9/3 5/10/3 6/11/3
f 6/12/4 2/13/4 4/5/4 8/14/4
f 2/13/5 1/1/5 3/4/5 4/5/5
f 6/11/6 5/10/6 1/1/6 2/13/6
