# Blender v2.82 (sub 7) OBJ File: ''
# www.blender.org
mtllib lakers.mtl
o Cylinder
v 0.000000 1.000000 -1.000000
v -0.000000 -1.000000 -1.000000
v -0.195090 1.000000 -0.980785
v -0.195090 -1.000000 -0.980785
v -0.382683 1.000000 -0.923880
v -0.382684 -1.000000 -0.923880
v -0.555570 1.000000 -0.831470
v -0.555570 -1.000000 -0.831470
v -0.707107 1.000000 -0.707107
v -0.707107 -1.000000 -0.707107
v -0.831470 1.000000 -0.555570
v -0.831470 -1.000000 -0.555570
v -0.923879 1.000000 -0.382683
v -0.923880 -1.000000 -0.382683
v -0.980785 1.000000 -0.195090
v -0.980785 -1.000000 -0.195090
v -1.000000 1.000000 -0.000000
v -1.000000 -1.000000 -0.000000
v -0.980785 1.000000 0.195090
v -0.980785 -1.000000 0.195090
v -0.923880 1.000000 0.382683
v -0.923880 -1.000000 0.382683
v -0.831470 1.000000 0.555570
v -0.831470 -1.000000 0.555570
v -0.707107 1.000000 0.707107
v -0.707107 -1.000000 0.707107
v -0.555570 1.000000 0.831470
v -0.555570 -1.000000 0.831470
v -0.382683 1.000000 0.923880
v -0.382683 -1.000000 0.923880
v -0.195090 1.000000 0.980785
v -0.195090 -1.000000 0.980785
v 0.000000 1.000000 1.000000
v 0.000000 -1.000000 1.000000
v 0.195091 1.000000 0.980785
v 0.195091 -1.000000 0.980785
v 0.382684 1.000000 0.923879
v 0.382684 -1.000000 0.923879
v 0.555571 1.000000 0.831469
v 0.555571 -1.000000 0.831469
v 0.707107 1.000000 0.707106
v 0.707107 -1.000000 0.707106
v 0.831470 1.000000 0.555570
v 0.831470 -1.000000 0.555570
v 0.923880 1.000000 0.382683
v 0.923880 -1.000000 0.382683
v 0.980785 1.000000 0.195089
v 0.980785 -1.000000 0.195089
v 1.000000 1.000000 -0.000001
v 1.000000 -1.000000 -0.000001
v 0.980785 1.000000 -0.195091
v 0.980785 -1.000000 -0.195091
v 0.923879 1.000000 -0.382684
v 0.923879 -1.000000 -0.382684
v 0.831469 1.000000 -0.555571
v 0.831469 -1.000000 -0.555571
v 0.707106 1.000000 -0.707108
v 0.707106 -1.000000 -0.707108
v 0.555569 1.000000 -0.831470
v 0.555569 -1.000000 -0.831470
v 0.382682 1.000000 -0.923880
v 0.382682 -1.000000 -0.923880
v 0.195089 1.000000 -0.980786
v 0.195089 -1.000000 -0.980786
vt 1.000000 0.500000
vt 1.000000 1.000000
vt 0.968750 1.000000
vt 0.968750 0.500000
vt 0.937500 1.000000
vt 0.937500 0.500000
vt 0.906250 1.000000
vt 0.906250 0.500000
vt 0.875000 1.000000
vt 0.875000 0.500000
vt 0.843750 1.000000
vt 0.843750 0.500000
vt 0.812500 1.000000
vt 0.812500 0.500000
vt 0.781250 1.000000
vt 0.781250 0.500000
vt 0.750000 1.000000
vt 0.750000 0.500000
vt 0.718750 1.000000
vt 0.718750 0.500000
vt 0.687500 1.000000
vt 0.687500 0.500000
vt 0.808834 0.184548
vt 0.808834 0.805452
vt 0.758917 0.805452
vt 0.758917 0.184548
vt 0.709000 0.805452
vt 0.709000 0.184548
vt 0.659084 0.805452
vt 0.659084 0.184548
vt 0.609167 0.805452
vt 0.609167 0.184548
vt 0.559250 0.805452
vt 0.559250 0.184548
vt 0.509333 0.805452
vt 0.509333 0.184548
vt 0.459417 0.805452
vt 0.459417 0.184548
vt 0.409500 0.805452
vt 0.409500 0.184548
vt 0.359583 0.805452
vt 0.359583 0.184548
vt 0.309666 0.805452
vt 0.309666 0.184548
vt 0.259750 0.805452
vt 0.259750 0.184548
vt 0.209833 0.805452
vt 0.209833 0.184548
vt 0.159916 0.805452
vt 0.159916 0.184548
vt 0.281250 0.500000
vt 0.281250 1.000000
vt 0.250000 1.000000
vt 0.250000 0.500000
vt 0.218750 1.000000
vt 0.218750 0.500000
vt 0.187500 1.000000
vt 0.187500 0.500000
vt 0.156250 1.000000
vt 0.156250 0.500000
vt 0.125000 1.000000
vt 0.125000 0.500000
vt 0.093750 1.000000
vt 0.093750 0.500000
vt 0.062500 1.000000
vt 0.062500 0.500000
vt 0.583951 1.143542
vt 0.493750 1.156199
vt 0.403550 1.143542
vt 0.316816 1.106059
vt 0.236881 1.045188
vt 0.166818 0.963271
vt 0.109318 0.863454
vt 0.066592 0.749574
vt 0.040281 0.626006
vt 0.031397 0.497501
vt 0.040281 0.368995
vt 0.066591 0.245427
vt 0.109317 0.131547
vt 0.166817 0.031730
vt 0.236880 -0.050188
vt 0.316815 -0.111058
vt 0.403549 -0.148542
vt 0.493750 -0.161199
vt 0.583950 -0.148542
vt 0.670685 -0.111058
vt 0.750620 -0.050188
vt 0.820683 0.031730
vt 0.878183 0.131547
vt 0.920908 0.245427
vt 0.947219 0.368994
vt 0.956103 0.497500
vt 0.947219 0.626006
vt 0.920908 0.749573
vt 0.878183 0.863453
vt 0.820683 0.963270
vt 0.750620 1.045188
vt 0.670685 1.106058
vt 0.031250 1.000000
vt 0.031250 0.500000
vt 0.000000 1.000000
vt 0.000000 0.500000
vt 0.498438 1.141933
vt 0.582224 1.129550
vt 0.662790 1.092878
vt 0.737041 1.033327
vt 0.802121 0.953183
vt 0.855532 0.855528
vt 0.895220 0.744114
vt 0.919659 0.623223
vt 0.927911 0.497500
vt 0.919659 0.371777
vt 0.895220 0.250886
vt 0.855532 0.139472
vt 0.802121 0.041817
vt 0.737041 -0.038326
vt 0.662790 -0.097879
vt 0.582224 -0.134550
vt 0.498437 -0.146933
vt 0.414651 -0.134550
vt 0.334085 -0.097878
vt 0.259834 -0.038326
vt 0.194753 0.041817
vt 0.141343 0.139473
vt 0.101655 0.250887
vt 0.077216 0.371778
vt 0.068964 0.497501
vt 0.077216 0.623223
vt 0.101656 0.744114
vt 0.141343 0.855528
vt 0.194754 0.953183
vt 0.259835 1.033327
vt 0.334085 1.092879
vt 0.414652 1.129550
vn -0.0980 0.0000 -0.9952
vn -0.2903 0.0000 -0.9569
vn -0.4714 0.0000 -0.8819
vn -0.6344 0.0000 -0.7730
vn -0.7730 0.0000 -0.6344
vn -0.8819 0.0000 -0.4714
vn -0.9569 0.0000 -0.2903
vn -0.9952 0.0000 -0.0980
vn -0.9952 0.0000 0.0980
vn -0.9569 0.0000 0.2903
vn -0.8819 0.0000 0.4714
vn -0.7730 0.0000 0.6344
vn -0.6344 0.0000 0.7730
vn -0.4714 0.0000 0.8819
vn -0.2903 0.0000 0.9569
vn -0.0980 0.0000 0.9952
vn 0.0980 -0.0000 0.9952
vn 0.2903 -0.0000 0.9569
vn 0.4714 -0.0000 0.8819
vn 0.6344 -0.0000 0.7730
vn 0.7730 -0.0000 0.6344
vn 0.8819 -0.0000 0.4714
vn 0.9569 -0.0000 0.2903
vn 0.9952 -0.0000 0.0980
vn 0.9952 -0.0000 -0.0980
vn 0.9569 -0.0000 -0.2903
vn 0.8819 -0.0000 -0.4714
vn 0.7730 -0.0000 -0.6344
vn 0.6344 -0.0000 -0.7730
vn 0.4714 -0.0000 -0.8819
vn -0.0000 -1.0000 -0.0000
vn 0.2903 -0.0000 -0.9569
vn 0.0980 -0.0000 -0.9952
vn 0.0000 1.0000 -0.0000
usemtl Material.001
s off
f 1/1/1 2/2/1 4/3/1 3/4/1
f 3/4/2 4/3/2 6/5/2 5/6/2
f 5/6/3 6/5/3 8/7/3 7/8/3
f 7/8/4 8/7/4 10/9/4 9/10/4
f 9/10/5 10/9/5 12/11/5 11/12/5
f 11/12/6 12/11/6 14/13/6 13/14/6
f 13/14/7 14/13/7 16/15/7 15/16/7
f 15/16/8 16/15/8 18/17/8 17/18/8
f 17/18/9 18/17/9 20/19/9 19/20/9
f 19/20/10 20/19/10 22/21/10 21/22/10
f 21/23/11 22/24/11 24/25/11 23/26/11
f 23/26/12 24/25/12 26/27/12 25/28/12
f 25/28/13 26/27/13 28/29/13 27/30/13
f 27/30/14 28/29/14 30/31/14 29/32/14
f 29/32/15 30/31/15 32/33/15 31/34/15
f 31/34/16 32/33/16 34/35/16 33/36/16
f 33/36/17 34/35/17 36/37/17 35/38/17
f 35/38/18 36/37/18 38/39/18 37/40/18
f 37/40/19 38/39/19 40/41/19 39/42/19
f 39/42/20 40/41/20 42/43/20 41/44/20
f 41/44/21 42/43/21 44/45/21 43/46/21
f 43/46/22 44/45/22 46/47/22 45/48/22
f 45/48/23 46/47/23 48/49/23 47/50/23
f 47/51/24 48/52/24 50/53/24 49/54/24
f 49/54/25 50/53/25 52/55/25 51/56/25
f 51/56/26 52/55/26 54/57/26 53/58/26
f 53/58/27 54/57/27 56/59/27 55/60/27
f 55/60/28 56/59/28 58/61/28 57/62/28
f 57/62/29 58/61/29 60/63/29 59/64/29
f 59/64/30 60/63/30 62/65/30 61/66/30
f 4/67/31 2/68/31 64/69/31 62/70/31 60/71/31 58/72/31 56/73/31 54/74/31 52/75/31 50/76/31 48/77/31 46/78/31 44/79/31 42/80/31 40/81/31 38/82/31 36/83/31 34/84/31 32/85/31 30/86/31 28/87/31 26/88/31 24/89/31 22/90/31 20/91/31 18/92/31 16/93/31 14/94/31 12/95/31 10/96/31 8/97/31 6/98/31
f 61/66/32 62/65/32 64/99/32 63/100/32
f 63/100/33 64/99/33 2/101/33 1/102/33
f 1/103/34 3/104/34 5/105/34 7/106/34 9/107/34 11/108/34 13/109/34 15/110/34 17/111/34 19/112/34 21/113/34 23/114/34 25/115/34 27/116/34 29/117/34 31/118/34 33/119/34 35/120/34 37/121/34 39/122/34 41/123/34 43/124/34 45/125/34 47/126/34 49/127/34 51/128/34 53/129/34 55/130/34 57/131/34 59/132/34 61/133/34 63/134/34
